<svg xmlns="http://www.w3.org/2000/svg" viewBox="0 0 640 520">
  <defs><linearGradient id="bg" x1="0" x2="1" y1="0" y2="1"><stop stop-color="#314020"/><stop offset=".55" stop-color="#11100a"/><stop offset="1" stop-color="#050302"/></linearGradient><radialGradient id="glow" cx=".65" cy=".22" r=".62"><stop stop-color="#e9c176" stop-opacity=".36"/><stop offset="1" stop-color="#000" stop-opacity="0"/></radialGradient></defs>
  <rect width="640" height="520" fill="url(#bg)"/><rect width="640" height="520" fill="url(#glow)"/>
  <path d="M86 430c128-94 338-98 468 0v90H86z" fill="#18130d"/><path d="M180 420c38-72 83-101 140-101s102 29 140 101v100H180z" fill="#6f6a58"/>
  <path d="M220 166c29-71 167-73 199 0l-15 51H236z" fill="#e6dfcf"/><path d="M143 180c98-42 253-44 352 0 22 10 23 31-6 37-117 23-222 23-339 0-29-6-29-27-7-37z" fill="#d4c8b3"/>
  <ellipse cx="320" cy="251" rx="87" ry="106" fill="#9a6b49"/><path d="M239 238c42 25 118 26 164 0-1 84-36 138-83 138s-80-54-81-138z" fill="#a67451"/>
  <path d="M258 330c42 28 84 28 126 0" fill="none" stroke="#eee3d1" stroke-width="18" stroke-linecap="round"/><path d="M264 321c35 18 77 18 112 0" fill="none" stroke="#2a130c" stroke-width="8" stroke-linecap="round"/>
  <circle cx="286" cy="255" r="8" fill="#160c07"/><circle cx="354" cy="255" r="8" fill="#160c07"/><path d="M315 250c-8 31-11 48 10 54" fill="none" stroke="#674028" stroke-width="8" stroke-linecap="round"/>
  <path d="M234 219c7-34 37-61 86-61s78 27 86 61" fill="none" stroke="#b7ab93" stroke-width="9" opacity=".65"/><path d="M0 0h640v520H0z" fill="none" stroke="#e9c176" stroke-opacity=".18" stroke-width="10"/>
</svg>
