<svg xmlns="http://www.w3.org/2000/svg" viewBox="0 0 640 520">
  <defs><linearGradient id="bg" x1="0" x2="1" y1="0" y2="1"><stop stop-color="#172539"/><stop offset=".55" stop-color="#100d0a"/><stop offset="1" stop-color="#050302"/></linearGradient><radialGradient id="glow" cx=".63" cy=".26" r=".62"><stop stop-color="#e9c176" stop-opacity=".35"/><stop offset="1" stop-color="#000" stop-opacity="0"/></radialGradient></defs>
  <rect width="640" height="520" fill="url(#bg)"/><rect width="640" height="520" fill="url(#glow)"/>
  <path d="M82 430c128-90 348-90 476 0v90H82z" fill="#111015"/><path d="M176 421c42-76 88-107 144-107s102 31 144 107v99H176z" fill="#202631"/>
  <ellipse cx="320" cy="252" rx="86" ry="104" fill="#6b412d"/><path d="M241 239c41 23 116 23 158 0-1 82-35 136-79 136s-78-54-79-136z" fill="#7a4d36"/>
  <path d="M238 200c16-62 52-95 82-95s66 33 82 95c-43 19-121 19-164 0z" fill="#191818"/><path d="M244 201c37-23 115-23 152 0" fill="none" stroke="#2f3035" stroke-width="18" stroke-linecap="round"/>
  <path d="M274 321c31 18 61 18 92 0" fill="none" stroke="#1f0e08" stroke-width="8" stroke-linecap="round"/><circle cx="288" cy="254" r="8" fill="#0e0805"/><circle cx="352" cy="254" r="8" fill="#0e0805"/><path d="M315 249c-8 30-10 46 9 52" fill="none" stroke="#4c2a1b" stroke-width="8" stroke-linecap="round"/>
  <path d="M247 389l73 78 73-78" fill="#0c0d11"/><path d="M290 375h60l-30 54z" fill="#d8c9a6"/><path d="M0 0h640v520H0z" fill="none" stroke="#e9c176" stroke-opacity=".18" stroke-width="10"/>
</svg>
