<svg xmlns="http://www.w3.org/2000/svg" viewBox="0 0 640 520">
  <defs><linearGradient id="bg" x1="0" x2="1" y1="0" y2="1"><stop stop-color="#26211c"/><stop offset=".55" stop-color="#100c08"/><stop offset="1" stop-color="#050302"/></linearGradient><radialGradient id="glow" cx=".35" cy=".25" r=".62"><stop stop-color="#f0d184" stop-opacity=".32"/><stop offset="1" stop-color="#000" stop-opacity="0"/></radialGradient></defs>
  <rect width="640" height="520" fill="url(#bg)"/><rect width="640" height="520" fill="url(#glow)"/>
  <path d="M84 430c128-96 344-96 472 0v90H84z" fill="#15100b"/><path d="M181 419c38-70 88-102 139-102s101 32 139 102v101H181z" fill="#37312c"/>
  <path d="M218 182c34-81 170-81 204 0l-17 41H235z" fill="#d8d0c4"/><path d="M143 189c100-43 256-43 354 0 24 11 20 32-10 37-115 20-218 20-333 0-31-5-35-26-11-37z" fill="#bfb4a1"/>
  <ellipse cx="320" cy="255" rx="88" ry="106" fill="#8c654a"/><path d="M239 240c42 25 119 25 162 0-1 84-36 139-81 139s-80-55-81-139z" fill="#9a6e51"/>
  <path d="M250 323c45 43 95 43 140 0" fill="none" stroke="#ddd8d0" stroke-width="22" stroke-linecap="round"/><path d="M270 316c34 19 66 19 100 0" fill="none" stroke="#2a130c" stroke-width="8" stroke-linecap="round"/><circle cx="286" cy="256" r="8" fill="#160b07"/><circle cx="354" cy="256" r="8" fill="#160b07"/><path d="M315 251c-8 30-11 46 10 52" fill="none" stroke="#61402d" stroke-width="8" stroke-linecap="round"/>
  <path d="M239 222c12-42 44-68 81-68s69 26 81 68" fill="none" stroke="#e5ddd2" stroke-width="11" opacity=".6"/><path d="M0 0h640v520H0z" fill="none" stroke="#e9c176" stroke-opacity=".18" stroke-width="10"/>
</svg>
